<svg xmlns="http://www.w3.org/2000/svg" version="1.1" xmlns:xlink="http://www.w3.org/1999/xlink" xmlns:svgjs="http://svgjs.dev/svgjs" width="2000" height="777" viewBox="0 0 2000 777"><g transform="matrix(1,0,0,1,-1.2121212121212466,-0.3447280209707628)"><svg viewBox="0 0 396 154" data-background-color="#000000" preserveAspectRatio="xMidYMid meet" height="777" width="2000" xmlns="http://www.w3.org/2000/svg" xmlns:xlink="http://www.w3.org/1999/xlink"><g id="tight-bounds" transform="matrix(1,0,0,1,0.2400000000000091,0.06832447262483754)"><svg viewBox="0 0 395.52 153.86335105475032" height="153.86335105475032" width="395.52"><g><svg viewBox="0 0 395.52 153.86335105475032" height="153.86335105475032" width="395.52"><g transform="matrix(1,0,0,1,0,92.83881840430219)"><svg viewBox="0 0 395.52 61.024532650448144" height="61.024532650448144" width="395.52"><g id="textblocktransform"><svg viewBox="0 0 395.52 61.024532650448144" height="61.024532650448144" width="395.52" id="textblock"><g><svg viewBox="0 0 395.52 61.024532650448144" height="61.024532650448144" width="395.52"><g transform="matrix(1,0,0,1,0,0)"><svg width="395.52" viewBox="4.54 -35.99 305.06 47.07" height="61.024532650448144" data-palette-color="#ffffff"><path d="M4.54-35.99L10.5-35.99 10.5-4.44 27.05-4.44 27.05 0 4.54 0 4.54-35.99ZM38.47-27.54L38.47-12.55Q38.47-10.84 38.62-9.35 38.77-7.86 39.26-6.74 39.74-5.62 40.72-4.93 41.7-4.25 43.31-4.25L43.31-4.25Q43.94-4.25 45.11-4.44 46.29-4.64 47.36-5.08L47.36-5.08 47.36-1.46Q46.09-0.78 44.6-0.27 43.11 0.24 41.65 0.24L41.65 0.24Q40.48 0.24 39.55 0.02 38.62-0.2 37.81-0.66 37.01-1.12 36.28-1.71 35.54-2.29 34.81-3.03L34.81-3.03Q33.98-3.86 33.49-4.96 33.01-6.05 32.79-7.25 32.57-8.45 32.54-9.67 32.52-10.89 32.52-12.06L32.52-12.06 32.52-27.54 38.47-27.54ZM49.36-27.54L55.32-27.54 55.32 0 50 0 49.36-2.83 49.36-27.54ZM72.21-13.82L63.18-27.54 69.87-27.54 75-18.51 75-8.25 70.01 0 63.23 0 72.21-13.82ZM82.22-27.54L88.91-27.54 79.88-13.82 88.86 0 82.08 0 77-8.89 77-19.29 82.22-27.54ZM109.61-23.19L109.61-27.78Q112.25-27.54 114.37-26.37 116.5-25.2 118.01-23.34 119.52-21.48 120.33-19.09 121.14-16.7 121.14-14.11L121.14-14.11Q121.14-12.94 120.99-11.77L120.99-11.77 104.24-11.77 104.24-16.06 115.52-16.06Q115.52-17.33 115.1-18.51 114.69-19.68 113.88-20.68 113.08-21.68 112-22.36 110.93-23.05 109.61-23.19L109.61-23.19ZM109.42-4.59L109.42-4.59Q109.95-4.59 110.76-4.71 111.56-4.83 112.47-5.15 113.37-5.47 114.27-5.96 115.18-6.45 115.86-7.13L115.86-7.13 118.01-3.86Q116.4-1.86 114.25-0.83 112.1 0.2 108.78 0.2L108.78 0.2Q106.1 0.2 103.75-0.9 101.41-2 99.75-3.91 98.09-5.81 97.11-8.35 96.14-10.89 96.14-13.82L96.14-13.82Q96.14-16.6 97.04-19.09 97.94-21.58 99.5-23.46 101.07-25.34 103.14-26.51 105.22-27.69 107.61-27.83L107.61-27.83 107.61-23.14Q105.8-22.8 104.63-21.68 103.46-20.56 102.8-19.12 102.14-17.68 101.87-16.16 101.6-14.65 101.6-13.57L101.6-13.57Q101.6-11.67 102.07-10.03 102.53-8.4 103.51-7.2 104.48-6.01 105.93-5.3 107.37-4.59 109.42-4.59ZM129.58-35.99L135.54-35.99 135.54-4.44 152.09-4.44 152.09 0 129.58 0 129.58-35.99ZM170.69-23.1L170.69-27.69Q173.38-27.54 175.57-26.39 177.77-25.24 179.26-23.36 180.75-21.48 181.58-18.99 182.41-16.5 182.41-13.67L182.41-13.67Q182.41-10.84 181.55-8.37 180.7-5.91 179.19-4.08 177.67-2.25 175.48-1.12 173.28 0 170.69 0.2L170.69 0.2 170.69-4.49Q173.13-5.03 174.67-7.57 176.21-10.11 176.21-13.67L176.21-13.67Q176.21-15.48 175.84-17.07 175.48-18.65 174.74-19.92 174.01-21.19 172.99-22.02 171.96-22.85 170.69-23.1L170.69-23.1ZM157.07-13.77L157.07-13.77Q157.07-16.6 157.9-19.04 158.73-21.48 160.27-23.32 161.8-25.15 163.95-26.27 166.1-27.39 168.69-27.64L168.69-27.64 168.69-23.1Q166.25-22.56 164.78-20.02 163.32-17.48 163.32-13.92L163.32-13.92Q163.32-12.11 163.68-10.5 164.05-8.89 164.73-7.62 165.42-6.35 166.42-5.52 167.42-4.69 168.69-4.49L168.69-4.49 168.69 0.2Q166 0 163.85-1.15 161.71-2.29 160.19-4.15 158.68-6.01 157.87-8.5 157.07-10.99 157.07-13.77ZM195.83-27.54L195.83-12.55Q195.83-10.84 195.98-9.35 196.13-7.86 196.62-6.74 197.1-5.62 198.08-4.93 199.06-4.25 200.67-4.25L200.67-4.25Q201.3-4.25 202.48-4.44 203.65-4.64 204.72-5.08L204.72-5.08 204.72-1.46Q203.45-0.78 201.96-0.27 200.47 0.24 199.01 0.24L199.01 0.24Q197.84 0.24 196.91 0.02 195.98-0.2 195.18-0.66 194.37-1.12 193.64-1.71 192.9-2.29 192.17-3.03L192.17-3.03Q191.34-3.86 190.85-4.96 190.37-6.05 190.15-7.25 189.93-8.45 189.9-9.67 189.88-10.89 189.88-12.06L189.88-12.06 189.88-27.54 195.83-27.54ZM206.72-27.54L212.68-27.54 212.68 0 207.36 0 206.72-2.83 206.72-27.54ZM220.98-27.54L226.25-27.54 226.89-24.76 226.89 0 220.98 0 220.98-27.54ZM241.49-24.51L241.49-24.51Q242.32-23.68 242.78-22.58 243.24-21.48 243.46-20.29 243.68-19.09 243.73-17.87 243.78-16.65 243.78-15.48L243.78-15.48 243.78-0.98 243.78 0 237.82 0 237.82-14.99Q237.82-16.65 237.68-18.16 237.53-19.68 236.99-20.85 236.46-22.02 235.53-22.68 234.6-23.34 232.94-23.34L232.94-23.34Q232.26-23.34 231.11-23.12 229.96-22.9 228.89-22.41L228.89-22.41 228.89-26.17Q230.21-26.86 231.75-27.34 233.28-27.83 234.75-27.83L234.75-27.83Q236.95-27.83 238.46-26.93 239.97-26.03 241.49-24.51ZM261.94 0.24L261.94 0.24Q259.21 0.24 257.16-0.95 255.11-2.15 253.74-4.15 252.37-6.15 251.74-8.74 251.1-11.33 251.1-14.16L251.1-14.16Q251.1-17.97 252.15-20.56 253.2-23.14 254.84-24.78 256.47-26.42 258.5-27.1 260.53-27.78 262.48-27.78L262.48-27.78Q263.99-27.78 265.36-27.44 266.73-27.1 267.85-26.46L267.85-26.46 267.85-21.29Q267.07-22.17 266.02-22.71 264.97-23.24 263.75-23.24L263.75-23.24Q262.28-23.24 261.09-22.49 259.89-21.73 259.06-20.46 258.23-19.19 257.79-17.48 257.35-15.77 257.35-13.87L257.35-13.87Q257.35-11.91 257.82-10.18 258.28-8.45 259.14-7.18 259.99-5.91 261.19-5.15 262.38-4.39 263.85-4.39L263.85-4.39Q265.07-4.39 266.04-4.91 267.02-5.42 267.85-6.25L267.85-6.25 267.85-1.17Q266.68-0.59 265.17-0.17 263.65 0.24 261.94 0.24ZM270.49-27.54L275.76-27.54 275.71 0Q275.52 2.98 274.52 5.08 273.52 7.18 271.95 8.54 270.39 9.91 268.34 10.5 266.29 11.08 263.94 11.08L263.94 11.08Q261.21 11.08 258.55 10.13 255.89 9.18 254.13 6.93L254.13 6.93 257.55 3.56Q258.04 4.39 258.79 4.93 259.55 5.47 260.36 5.76 261.16 6.05 261.97 6.18 262.77 6.3 263.41 6.3L263.41 6.3Q266.44 6.3 268.14 4.54 269.85 2.78 269.85-1.46L269.85-1.46 269.85-24.76 270.49-27.54ZM298.07-23.19L298.07-27.78Q300.71-27.54 302.83-26.37 304.96-25.2 306.47-23.34 307.99-21.48 308.79-19.09 309.6-16.7 309.6-14.11L309.6-14.11Q309.6-12.94 309.45-11.77L309.45-11.77 292.7-11.77 292.7-16.06 303.98-16.06Q303.98-17.33 303.57-18.51 303.15-19.68 302.35-20.68 301.54-21.68 300.47-22.36 299.39-23.05 298.07-23.19L298.07-23.19ZM297.88-4.59L297.88-4.59Q298.42-4.59 299.22-4.71 300.03-4.83 300.93-5.15 301.83-5.47 302.74-5.96 303.64-6.45 304.32-7.13L304.32-7.13 306.47-3.86Q304.86-1.86 302.71-0.83 300.56 0.2 297.24 0.2L297.24 0.2Q294.56 0.2 292.21-0.9 289.87-2 288.21-3.91 286.55-5.81 285.57-8.35 284.6-10.89 284.6-13.82L284.6-13.82Q284.6-16.6 285.5-19.09 286.4-21.58 287.97-23.46 289.53-25.34 291.6-26.51 293.68-27.69 296.07-27.83L296.07-27.83 296.07-23.14Q294.26-22.8 293.09-21.68 291.92-20.56 291.26-19.12 290.6-17.68 290.33-16.16 290.07-14.65 290.07-13.57L290.07-13.57Q290.07-11.67 290.53-10.03 290.99-8.4 291.97-7.2 292.95-6.01 294.39-5.3 295.83-4.59 297.88-4.59Z" opacity="1" transform="matrix(1,0,0,1,0,0)" fill="#ffffff" class="wordmark-text-0" data-fill-palette-color="primary" id="text-0"></path></svg></g></svg></g></svg></g></svg></g><g transform="matrix(1,0,0,1,150.54380458284248,0)"><svg viewBox="0 0 94.43239083431499 78.43239083431499" height="78.43239083431499" width="94.43239083431499"><g><svg xmlns="http://www.w3.org/2000/svg" xmlns:xlink="http://www.w3.org/1999/xlink" version="1.0" x="8" y="0" viewBox="7 7 86 86" enable-background="new 0 0 100 100" xml:space="preserve" height="78.43239083431499" width="78.43239083431499" class="icon-icon-0" data-fill-palette-color="accent" id="icon-0"><path d="M80.5 80.2C84.4 76.3 87.5 71.6 89.7 66.4 91.8 61.4 93 55.8 93 50S91.8 38.6 89.7 33.6C87.5 28.4 84.4 23.7 80.5 19.8 80.5 19.8 80.5 19.7 80.4 19.7S80.3 19.7 80.3 19.6C76.4 15.7 71.7 12.5 66.5 10.4 61.4 8.2 55.8 7 50 7S38.6 8.2 33.6 10.3C28.4 12.5 23.7 15.6 19.8 19.5 19.8 19.5 19.7 19.5 19.7 19.6 19.7 19.6 19.7 19.7 19.6 19.7 15.7 23.6 12.5 28.3 10.4 33.5 8.2 38.6 7 44.2 7 50S8.2 61.4 10.3 66.4C12.5 71.6 15.6 76.3 19.5 80.2 19.5 80.2 19.5 80.3 19.6 80.3 19.6 80.3 19.7 80.3 19.7 80.4 23.6 84.3 28.3 87.5 33.5 89.6 38.6 91.8 44.2 93 50 93S61.4 91.8 66.4 89.7C71.6 87.5 76.3 84.4 80.2 80.5 80.4 80.5 80.5 80.4 80.5 80.2M89 65.6L80.3 62 92 51.2C91.8 56.3 90.8 61.1 89 65.6M92 48.8L80.3 38 89 34.4C90.8 38.9 91.8 43.7 92 48.8M80.5 21.2C83.9 24.8 86.6 28.9 88.6 33.5L79.9 37.1zM50 73.8L33.2 66.8 26.2 50 33.2 33.2 50 26.2 66.8 33.2 73.8 50 66.8 66.8zM66.3 68.1L61.9 78.7 51.3 74.3zM48.7 74.4L38.1 78.8 33.7 68.2zM31.9 66.3L21.3 61.9 25.7 51.3zM21.3 38.1L31.9 33.7 25.7 48.7zM33.7 31.9L38.1 21.3 48.7 25.7zM51.3 25.6L61.9 21.2 66.3 31.8zM74.4 51.3L78.8 61.9 68.2 66.3zM68.1 33.7L78.7 38.1 74.3 48.7zM67.6 32.4L62.9 21.1 79.5 20.5 78.9 37.1zM66.5 11.4C71.1 13.4 75.2 16.1 78.8 19.5L62.9 20.1zM65.6 11L62 19.7 51.2 8C56.3 8.2 61.1 9.2 65.6 11M61.3 20.4L50 25.1 38.7 20.4 50 8.2zM48.8 8L38 19.7 34.4 11C38.9 9.2 43.7 8.2 48.8 8M33.5 11.4L37.1 20.1 21.2 19.5C24.7 16.1 28.9 13.4 33.5 11.4M37.1 21.1L32.4 32.4 21.1 37.1 20.5 20.5zM19.5 21.2L20.1 37.1 11.4 33.5C13.4 28.9 16.1 24.7 19.5 21.2M11 34.4L19.7 38 8 48.8C8.2 43.7 9.2 38.9 11 34.4M8 51.2L19.7 62 11 65.6C9.2 61.1 8.2 56.3 8 51.2M19.5 78.8C16.1 75.2 13.4 71.1 11.4 66.5L20.1 62.9zM8.2 50L20.4 38.7 25.1 50 20.4 61.3zM21.1 62.9L32.4 67.6 37.1 78.9 20.5 79.5zM33.5 88.6C28.9 86.6 24.8 83.9 21.2 80.5L37.1 79.9zM34.4 89L38 80.3 48.8 92C43.7 91.8 38.9 90.8 34.4 89M38.7 79.6L50 74.9 61.3 79.6 50 91.8zM51.2 92L62 80.3 65.6 89C61.1 90.8 56.3 91.8 51.2 92M66.5 88.6L62.9 79.9 78.8 80.5C75.3 83.9 71.1 86.6 66.5 88.6M62.9 78.9L67.6 67.6 78.9 62.9 79.5 79.5zM74.9 50L79.6 38.7 91.8 50 79.6 61.3zM88.6 66.5C86.6 71.1 83.9 75.2 80.5 78.8L79.9 62.9z" fill="#ffffff" data-fill-palette-color="accent"></path></svg></g></svg></g><g><rect width="150.54380458284248" height="5.503255331735109" y="71.92913550257988" x="244.97619541715747" fill="#ffffff" data-fill-palette-color="accent"></rect><rect width="150.54380458284248" height="5.503255331735109" y="71.92913550257988" x="0" fill="#ffffff" data-fill-palette-color="accent"></rect><rect width="150.54380458284248" height="5.503255331735109" y="60.92262483910966" x="244.97619541715747" fill="#ffffff" data-fill-palette-color="accent"></rect><rect width="150.54380458284248" height="5.503255331735109" y="60.92262483910966" x="0" fill="#ffffff" data-fill-palette-color="accent"></rect></g></svg></g><defs></defs></svg><rect width="395.52" height="153.86335105475032" fill="none" stroke="none" visibility="hidden"></rect></g></svg></g></svg>